<!DOCTYPE svg PUBLIC "-//W3C//DTD SVG 1.1//EN" "http://www.w3.org/Graphics/SVG/1.1/DTD/svg11.dtd">

<!-- Uploaded to: SVG Repo, www.svgrepo.com, Transformed by: SVG Repo Mixer Tools -->
<svg version="1.1" id="Layer_1" xmlns="http://www.w3.org/2000/svg" xmlns:xlink="http://www.w3.org/1999/xlink" viewBox="0 0 512 512" xml:space="preserve" width="50px" height="50px" fill="#f70808" stroke="#f70808">

<g id="SVGRepo_bgCarrier" stroke-width="0"/>

<g id="SVGRepo_tracerCarrier" stroke-linecap="round" stroke-linejoin="round"/>

<g id="SVGRepo_iconCarrier"> <polygon style="fill:#485C6A;" points="67.918,15.569 414.833,179.038 319.063,247.895 442.28,419.274 331.387,499.003 208.169,327.623 112.399,396.48 "/> <polygon style="fill:#394B56;" points="112.399,396.48 208.169,327.623 331.387,499.003 386.833,459.138 67.918,15.569 "/> <path d="M329.263,512L206.046,340.621l-101.06,72.66L56.724,0l376.394,177.359l-101.06,72.66l123.217,171.379L329.263,512z M210.294,314.626L333.51,486.005l95.772-68.857L306.065,245.769l90.481-65.054L79.112,31.138l40.701,348.543L210.294,314.626z"/> <rect x="21.31" y="188.281" transform="matrix(-0.1346 -0.9909 0.9909 -0.1346 -43.9979 356.7613)" style="fill:#FFFFFF;" width="224.958" height="18.624"/> </g>

</svg>